<svg width="201" height="179" viewBox="0 0 201 179" fill="none" xmlns="http://www.w3.org/2000/svg">
<g clip-path="url(#clip0_458_45)">
<path d="M82.5753 89.3008C82.5753 79.382 90.6253 71.3252 100.536 71.3252C110.446 71.3252 118.496 79.382 118.496 89.3008C118.496 99.2197 110.446 107.276 100.536 107.276C90.6253 107.276 82.5753 99.2197 82.5753 89.3008ZM201 89.3008C201 101.655 186.438 114.152 162.968 121.922C161.752 122.316 160.499 122.71 159.211 123.104C159.677 124.93 160.07 126.72 160.428 128.475C162.61 139.575 162.968 149.888 161.43 158.267C159.784 167.183 156.063 173.521 150.696 176.637C148.013 178.212 144.829 179 141.287 179C131.555 179 119.212 173.127 106.332 162.027C104.507 160.451 102.718 158.804 100.894 157.05C99.4982 158.41 98.1029 159.699 96.7075 160.917C88.1924 168.365 79.4268 173.808 71.4126 176.637C67.2266 178.141 63.291 178.893 59.7848 178.893C56.1355 178.893 52.9155 178.105 50.1963 176.529C39.9281 170.585 36.3503 153.469 40.6794 130.731C41.1088 128.403 41.6454 126.004 42.2536 123.569C40.3574 123.032 38.5328 122.459 36.7796 121.85C26.0821 118.198 16.9945 113.328 10.5187 107.778C3.64934 101.905 0 95.4956 0 89.3008C0 77.4125 13.0231 65.7749 34.8834 58.1836C37.2805 57.36 39.785 56.5723 42.361 55.8203C41.7885 53.5644 41.2876 51.3443 40.8583 49.16C38.7474 38.346 38.3539 28.4271 39.7134 20.4419C41.2161 11.7406 44.7581 5.54579 50.0174 2.50211C60.6792 -3.69269 78.8186 2.68115 97.28 19.117C98.3891 20.1197 99.4982 21.1581 100.643 22.2323C102.325 20.621 104.006 19.0812 105.652 17.6131C113.952 10.3799 122.36 5.08029 129.945 2.28726C138.21 -0.756425 145.365 -0.756425 150.589 2.25145C161.287 8.41044 164.829 27.3171 159.82 51.5233C159.533 52.9915 159.176 54.4596 158.818 55.9635C161.036 56.6081 163.183 57.2884 165.258 58.0046C175.669 61.5854 184.435 66.2404 190.66 71.3968C197.422 77.0545 201 83.2493 201 89.3008ZM106.654 28.3555C112.378 34.5145 118.103 41.6761 123.612 49.5539C133.094 50.4491 142.145 51.8814 150.517 53.815C150.839 52.4543 151.161 51.1294 151.412 49.8045C156.099 26.9948 152.056 13.0297 146.296 9.69953C143.362 8.01655 138.603 8.2314 132.879 10.3441C126.26 12.779 118.782 17.5415 111.269 24.0944C109.731 25.4193 108.192 26.8516 106.654 28.3555ZM52.8797 117.374C58.6041 118.628 64.7937 119.63 71.3768 120.346C69.2302 116.98 67.1193 113.543 65.0799 110.034C63.0764 106.596 61.1801 103.123 59.3912 99.6494C56.851 105.665 54.6328 111.645 52.8797 117.374ZM65.0799 68.9977C67.0835 65.5601 69.1228 62.1583 71.2337 58.864C64.8653 59.6518 58.7472 60.726 52.987 61.9793C54.7401 67.637 56.8868 73.4737 59.3912 79.4178C61.1801 75.9444 63.0764 72.471 65.0799 68.9977ZM72.5217 105.737C75.6344 111.108 78.926 116.336 82.3606 121.313C88.1924 121.671 94.2747 121.886 100.536 121.886C106.833 121.886 112.986 121.671 118.926 121.242C122.181 116.336 125.401 111.144 128.586 105.665C131.734 100.222 134.632 94.7436 137.244 89.3724C134.632 84.1087 131.77 78.7374 128.586 73.2588C125.473 67.8518 122.217 62.6954 118.89 57.7539C112.915 57.2884 106.761 57.0736 100.536 57.0736C94.382 57.0736 88.2282 57.3242 82.2175 57.7897C78.8544 62.7312 75.5628 67.9234 72.4859 73.2946C69.409 78.63 66.5468 84.0728 63.935 89.5157C66.5468 94.9227 69.409 100.366 72.5217 105.737ZM129.874 120.203C136.493 119.415 142.789 118.341 148.621 117.016C146.832 111.394 144.578 105.45 141.859 99.2913C140.035 102.836 138.067 106.417 136.027 109.962C133.988 113.471 131.949 116.909 129.874 120.203ZM148.192 62.0867C142.396 60.7618 136.242 59.6876 129.838 58.864C131.913 62.1225 133.952 65.4885 135.956 68.926C137.995 72.471 139.927 75.9802 141.752 79.4178C144.292 73.4737 146.475 67.637 148.192 62.0867ZM88.6933 48.7661C92.5931 48.5871 96.5287 48.4796 100.5 48.4796C104.543 48.4796 108.514 48.5871 112.486 48.7661C108.586 43.5739 104.614 38.7757 100.643 34.4787C96.6002 38.8115 92.5931 43.6098 88.6933 48.7661ZM49.3019 47.5128C49.6954 49.5539 50.1606 51.5949 50.6972 53.7076C59.0335 51.8098 68.0853 50.4133 77.5664 49.5181C83.0762 41.7477 88.8364 34.6219 94.6682 28.3197C93.6664 27.3529 92.6647 26.4219 91.6629 25.5625C74.2033 10.0934 60.1068 6.62003 54.3466 9.95018C51.4128 11.6332 49.2303 15.8943 48.1928 21.9101C47.0121 28.8568 47.3699 37.7372 49.3019 47.5128ZM54.4539 89.5515C50.4826 80.8859 47.1552 72.3278 44.6508 64.1278C42.2537 64.8081 39.9639 65.5243 37.7456 66.3121C17.6385 73.3304 8.62246 82.927 8.62246 89.3366C8.62246 95.9969 18.3183 106.489 39.5703 113.758C41.1803 114.295 42.8261 114.832 44.5434 115.333C47.0837 106.99 50.411 98.3245 54.4539 89.5515ZM94.8829 150.926C88.9795 144.624 83.1835 137.427 77.638 129.585C67.8348 128.797 58.7472 127.472 50.5899 125.646C50.0174 127.938 49.5523 130.158 49.123 132.306C45.1517 153.254 48.9799 165.858 54.4897 169.045C60.2499 172.375 74.1675 169.224 91.0904 154.4C92.3069 153.326 93.5949 152.144 94.8829 150.926ZM112.664 130.194C108.693 130.373 104.614 130.48 100.536 130.48C96.5287 130.48 92.6289 130.408 88.8006 130.265C92.772 135.493 96.8149 140.327 100.894 144.732C104.793 140.399 108.765 135.565 112.664 130.194ZM152.056 130.158C151.734 128.546 151.376 126.935 150.947 125.252C142.646 127.186 133.487 128.582 123.756 129.442C118.21 137.498 112.521 144.696 106.904 150.855C108.586 152.502 110.303 154.042 111.949 155.474C128.085 169.368 140.893 172.376 146.439 169.153C152.199 165.858 156.421 152.216 152.056 130.158ZM192.449 89.3008C192.449 85.8991 189.873 81.8886 185.186 77.9855C179.784 73.4737 171.913 69.3557 162.503 66.0972C160.571 65.4527 158.567 64.8081 156.528 64.1994C154.059 72.1846 150.768 80.6711 146.725 89.3366C150.947 98.2528 154.381 106.811 156.886 114.796C158.031 114.438 159.176 114.08 160.285 113.722C182.36 106.417 192.449 95.9253 192.449 89.3008Z" fill="black"/>
</g>
<defs>
<clipPath id="clip0_458_45">
<rect width="201" height="179" fill="white"/>
</clipPath>
</defs>
</svg>
